<?xml version="1.0" encoding="UTF-8"?>
<!DOCTYPE svg PUBLIC "-//W3C//DTD SVG 1.1//EN" "http://www.w3.org/Graphics/SVG/1.1/DTD/svg11.dtd">
<svg xmlns="http://www.w3.org/2000/svg" version="1.1" width="360px" height="360px" style="shape-rendering:geometricPrecision; text-rendering:geometricPrecision; image-rendering:optimizeQuality; fill-rule:evenodd; clip-rule:evenodd" xmlns:xlink="http://www.w3.org/1999/xlink">
<g><path style="opacity:0.996" fill="#0a0b0d" d="M 332.5,211.5 C 333.342,202.688 329.675,196.688 321.5,193.5C 318.322,193.735 314.989,194.402 311.5,195.5C 309.556,194.811 307.556,194.311 305.5,194C 305.833,193.667 306.167,193.333 306.5,193C 304.945,191.354 303.279,191.021 301.5,192C 302.833,191.333 302.833,190.667 301.5,190C 293.642,187.268 287.142,183.435 282,178.5C 280.128,177.932 278.295,177.265 276.5,176.5C 273.167,176.5 269.833,176.5 266.5,176.5C 265.978,175.393 265.645,174.226 265.5,173C 266.581,169.532 267.081,166.032 267,162.5C 263.934,158.045 261.1,153.378 258.5,148.5C 258.977,147.522 259.643,146.689 260.5,146C 259.222,142.121 260.222,138.455 263.5,135C 264.13,132.184 263.464,129.518 261.5,127C 264.531,121.095 264.698,115.261 262,109.5C 260.008,108.672 258.508,107.339 257.5,105.5C 261.537,105.824 264.203,104.158 265.5,100.5C 266.496,100.586 267.329,100.252 268,99.5C 268.219,100.938 268.719,102.271 269.5,103.5C 269.833,102.667 270.167,101.833 270.5,101C 268.203,92.3109 265.37,83.8109 262,75.5C 256.518,66.6696 248.684,63.5029 238.5,66C 235.977,68.8433 233.144,71.3433 230,73.5C 229.259,72.3595 228.425,72.3595 227.5,73.5C 226.833,72.8333 226.167,72.1667 225.5,71.5C 223.902,72.4847 222.235,72.6514 220.5,72C 219.167,71.3333 219.167,70.6667 220.5,70C 217.332,69.4177 216.999,68.4177 219.5,67C 214.591,66.2997 209.925,64.9664 205.5,63C 201.833,62.3333 198.167,62.3333 194.5,63C 193.584,63.2784 192.918,63.7784 192.5,64.5C 180.396,66.9658 170.896,73.2992 164,83.5C 159.651,91.7679 161.151,98.6013 168.5,104C 188.774,103.871 203.774,95.038 213.5,77.5C 214.421,76.019 215.588,74.6856 217,73.5C 217.945,73.9054 218.612,74.572 219,75.5C 220.586,82.9468 218.086,89.4468 211.5,95C 208.062,97.7129 204.395,99.8795 200.5,101.5C 193.622,104.051 186.788,106.718 180,109.5C 178.667,108.167 177.333,108.167 176,109.5C 174.598,107.027 173.098,107.027 171.5,109.5C 170.613,107.443 168.613,105.943 165.5,105C 160.239,103.57 155.572,104.736 151.5,108.5C 152.902,109.842 152.569,110.676 150.5,111C 151.451,111.718 151.617,112.551 151,113.5C 149.667,112.167 148.333,112.167 147,113.5C 146.135,111.112 146.968,109.612 149.5,109C 148.167,108.333 148.167,107.667 149.5,107C 148.584,106.626 147.75,106.126 147,105.5C 140.867,105.451 134.7,105.951 128.5,107C 130.412,105.8 131.745,104.133 132.5,102C 132,101.833 131.5,101.667 131,101.5C 130.454,102.289 129.787,103.289 129,104.5C 128.333,103.167 127.667,103.167 127,104.5C 126.383,103.551 126.549,102.718 127.5,102C 125.315,102.188 123.315,102.354 121.5,102.5C 120.201,101.91 119.368,100.91 119,99.5C 114.505,101.414 114.672,103.248 119.5,105C 118.437,106.188 117.103,106.688 115.5,106.5C 115.719,105.325 115.386,104.325 114.5,103.5C 112.167,104.833 109.833,106.167 107.5,107.5C 106.686,109.766 106.186,112.1 106,114.5C 104.265,116.611 102.432,118.611 100.5,120.5C 101.951,121.906 103.284,123.406 104.5,125C 101.833,126 101.833,127 104.5,128C 103.549,128.718 103.383,129.551 104,130.5C 107.355,125.262 107.855,125.428 105.5,131C 103.616,131.216 101.949,131.883 100.5,133C 103.167,134 103.167,135 100.5,136C 103.003,137.549 103.003,139.216 100.5,141C 101.967,142.098 102.801,143.598 103,145.5C 103.333,143.5 103.667,141.5 104,139.5C 104.5,140.5 105,141.5 105.5,142.5C 102.327,151.78 99.9932,160.947 98.5,170C 99.1667,170.333 99.8333,170.667 100.5,171C 97.5178,173.191 97.1845,175.524 99.5,178C 96.1386,182.283 94.8053,186.95 95.5,192C 94.2867,198.779 93.12,205.612 92,212.5C 89.705,214.126 88.205,216.293 87.5,219C 88.2893,219.546 89.2893,220.213 90.5,221C 89.1667,221.667 89.1667,222.333 90.5,223C 88.2557,225.349 87.0891,224.849 87,221.5C 86.2571,223.441 86.4238,225.274 87.5,227C 86.0836,229.455 85.7503,231.955 86.5,234.5C 86.0233,235.478 85.3567,236.311 84.5,237C 87.1667,237.667 87.1667,238.333 84.5,239C 85.3081,239.308 85.9747,239.808 86.5,240.5C 85.1667,242.5 83.8333,244.5 82.5,246.5C 82.6225,248.378 82.6225,250.211 82.5,252C 81.2135,254.022 80.2135,256.189 79.5,258.5C 80.0253,259.192 80.6919,259.692 81.5,260C 78.8229,261.463 77.8229,263.463 78.5,266C 76.9963,267.491 76.1629,269.324 76,271.5C 75.6667,271.167 75.3333,270.833 75,270.5C 74.8839,273.932 73.7172,276.932 71.5,279.5C 72.6682,280.906 72.3348,282.072 70.5,283C 72.3939,284.101 73.0606,285.434 72.5,287C 69.4489,288.36 68.7823,290.527 70.5,293.5C 67.9467,295.554 65.9467,298.054 64.5,301C 65.6953,302.533 65.6953,304.033 64.5,305.5C 64.8555,306.522 65.5222,307.189 66.5,307.5C 66.1667,308.167 65.8333,308.833 65.5,309.5C 62.6888,303.425 61.0221,296.925 60.5,290C 64.1067,271.18 68.9401,252.68 75,234.5C 79.4049,190.928 82.4049,147.261 84,103.5C 87.2557,50.4462 115.089,19.9462 167.5,12C 197.233,9.39569 223.566,17.3957 246.5,36C 259.172,48.8411 267.005,64.3411 270,82.5C 273.776,108.7 275.943,135.033 276.5,161.5C 298.773,159.407 316.606,167.074 330,184.5C 335.049,191.79 336.715,199.79 335,208.5C 334.623,209.942 333.79,210.942 332.5,211.5 Z"/></g>
<g><path style="opacity:1" fill="#c25607" d="M 192.5,64.5 C 199.255,63.5651 205.422,64.8984 211,68.5C 212.908,71.2065 213.741,74.2065 213.5,77.5C 203.774,95.038 188.774,103.871 168.5,104C 161.151,98.6013 159.651,91.7679 164,83.5C 170.896,73.2992 180.396,66.9658 192.5,64.5 Z"/></g>
<g><path style="opacity:1" fill="#c15607" d="M 265.5,100.5 C 264.203,104.158 261.537,105.824 257.5,105.5C 249.32,102.148 242.82,96.8149 238,89.5C 235.754,84.3749 235.087,79.0416 236,73.5C 239.016,67.628 243.516,66.128 249.5,69C 259.769,77.0377 265.102,87.5377 265.5,100.5 Z"/></g>
<g><path style="opacity:1" fill="#0e0f12" d="M 265.5,100.5 C 265.102,87.5377 259.769,77.0377 249.5,69C 243.516,66.128 239.016,67.628 236,73.5C 235.087,79.0416 235.754,84.3749 238,89.5C 242.82,96.8149 249.32,102.148 257.5,105.5C 258.508,107.339 260.008,108.672 262,109.5C 264.698,115.261 264.531,121.095 261.5,127C 263.464,129.518 264.13,132.184 263.5,135C 260.222,138.455 259.222,142.121 260.5,146C 259.643,146.689 258.977,147.522 258.5,148.5C 261.1,153.378 263.934,158.045 267,162.5C 267.081,166.032 266.581,169.532 265.5,173C 265.645,174.226 265.978,175.393 266.5,176.5C 269.833,176.5 273.167,176.5 276.5,176.5C 278.295,177.265 280.128,177.932 282,178.5C 287.142,183.435 293.642,187.268 301.5,190C 302.833,190.667 302.833,191.333 301.5,192C 303.279,191.021 304.945,191.354 306.5,193C 306.167,193.333 305.833,193.667 305.5,194C 307.556,194.311 309.556,194.811 311.5,195.5C 314.989,194.402 318.322,193.735 321.5,193.5C 329.675,196.688 333.342,202.688 332.5,211.5C 332.34,213.153 331.674,214.486 330.5,215.5C 329.63,213.968 329.964,212.468 331.5,211C 329.833,209.333 328.167,207.667 326.5,206C 321.178,206.472 315.845,207.305 310.5,208.5C 305.643,207.406 300.976,205.74 296.5,203.5C 288.884,196.633 281.051,189.967 273,183.5C 271.261,183.566 269.428,184.233 267.5,185.5C 266.446,185.32 265.446,184.987 264.5,184.5C 263.433,182.441 262.1,180.608 260.5,179C 260.833,178.667 261.167,178.333 261.5,178C 261.012,175.824 260.012,173.991 258.5,172.5C 256.729,173.035 256.396,173.869 257.5,175C 255.001,179.826 252.501,184.659 250,189.5C 245.047,194.748 238.881,197.081 231.5,196.5C 225.372,196.018 219.372,194.851 213.5,193C 211.649,191.316 209.982,189.483 208.5,187.5C 208.394,193.319 208.394,199.319 208.5,205.5C 206.523,204.851 204.69,204.851 203,205.5C 197.463,203.497 191.963,203.83 186.5,206.5C 182.768,206.632 178.935,206.298 175,205.5C 172.53,205.34 170.364,206.007 168.5,207.5C 165.203,206.702 163.036,204.702 162,201.5C 160.683,196.569 159.85,191.569 159.5,186.5C 159.657,185.127 159.49,183.793 159,182.5C 158.02,183.981 156.853,185.315 155.5,186.5C 155.475,188.63 154.975,190.63 154,192.5C 152.933,193.191 151.766,193.691 150.5,194C 151.167,194.333 151.833,194.667 152.5,195C 151.167,197 149.833,199 148.5,201C 148.833,201.333 149.167,201.667 149.5,202C 147.117,202.065 146.45,202.898 147.5,204.5C 147.023,205.478 146.357,206.311 145.5,207C 146.167,207.333 146.833,207.667 147.5,208C 143.679,208.399 143.012,209.732 145.5,212C 145.389,213.722 144.889,213.888 144,212.5C 142.513,213.253 142.346,214.086 143.5,215C 138.608,215.12 138.275,216.454 142.5,219C 141.584,219.374 140.75,219.874 140,220.5C 137.522,216.955 135.189,216.955 133,220.5C 130.266,219.638 130.099,218.805 132.5,218C 128.964,218.233 125.631,217.233 122.5,215C 123.5,214.667 124.5,214.333 125.5,214C 123.44,212.304 121.107,211.137 118.5,210.5C 115.026,212.049 111.692,213.883 108.5,216C 108.833,216.333 109.167,216.667 109.5,217C 106.644,219.022 104.311,221.522 102.5,224.5C 102.888,226.359 102.888,228.359 102.5,230.5C 103.025,231.192 103.692,231.692 104.5,232C 102.833,233.333 101.167,234.667 99.5,236C 100.833,237.84 100.666,238.34 99,237.5C 98.4549,241.388 96.9549,244.888 94.5,248C 94.5,249.667 94.5,251.333 94.5,253C 91.1065,256.789 89.4399,261.289 89.5,266.5C 88.5,266.5 87.5,266.5 86.5,266.5C 87.5724,269.574 87.5724,272.407 86.5,275C 85.8333,276.333 84.8333,277.333 83.5,278C 83.8333,279 84.1667,280 84.5,281C 83.3133,283.774 81.9799,286.441 80.5,289C 80.8333,289.333 81.1667,289.667 81.5,290C 80.3084,292.572 79.3084,295.239 78.5,298C 78.9054,298.945 79.572,299.612 80.5,300C 78.1088,301.309 78.1088,302.309 80.5,303C 78.0992,306.921 74.7658,309.421 70.5,310.5C 69.209,310.263 68.209,310.596 67.5,311.5C 66.5,311.167 65.8333,310.5 65.5,309.5C 65.8333,308.833 66.1667,308.167 66.5,307.5C 66.7058,305.451 67.5391,305.117 69,306.5C 71.3651,305.711 73.5318,304.544 75.5,303C 73.9547,299.945 74.6214,296.945 77.5,294C 76.5004,291.909 77.1671,290.243 79.5,289C 78.9415,288.275 78.6082,287.442 78.5,286.5C 80.0786,280.094 82.0786,273.761 84.5,267.5C 84.2907,266.914 83.9574,266.414 83.5,266C 84.7875,264.59 85.9542,263.09 87,261.5C 90.3637,252.031 93.5303,242.864 96.5,234C 95.6669,231.919 95.6669,229.752 96.5,227.5C 97.552,227.649 98.552,227.483 99.5,227C 99.1667,226.667 98.8333,226.333 98.5,226C 99.8333,224.667 101.167,223.333 102.5,222C 101.692,221.692 101.025,221.192 100.5,220.5C 100.929,217.888 101.929,216.388 103.5,216C 103.05,214.715 102.383,213.548 101.5,212.5C 103.113,211.573 104.779,210.739 106.5,210C 105.833,209.667 105.167,209.333 104.5,209C 110.297,203.046 116.63,196.879 123.5,190.5C 123.833,190.667 124.167,190.833 124.5,191C 123.453,193.231 122.619,195.398 122,197.5C 122.85,196.576 123.85,196.576 125,197.5C 126.326,196.201 127.66,194.868 129,193.5C 130.518,193.057 131.685,193.724 132.5,195.5C 134.116,194.885 135.449,193.885 136.5,192.5C 138.332,193.248 139.999,194.248 141.5,195.5C 145.167,191.667 148.833,187.833 152.5,184C 154.56,182.304 156.893,181.137 159.5,180.5C 160.325,184.122 160.825,187.789 161,191.5C 163.333,196.833 165.667,196.833 168,191.5C 170.166,193.121 172.666,193.955 175.5,194C 177.92,196.655 180.92,198.489 184.5,199.5C 185.478,199.023 186.311,198.357 187,197.5C 187.308,198.308 187.808,198.975 188.5,199.5C 190.029,196.471 192.362,194.305 195.5,193C 196.449,192.383 197.282,192.549 198,193.5C 198.508,191.096 199.675,190.429 201.5,191.5C 202.5,191 203.5,190.5 204.5,190C 204.335,185.503 204.002,181.003 203.5,176.5C 201.493,174.992 199.826,173.158 198.5,171C 198.833,170.667 199.167,170.333 199.5,170C 195.865,169.184 192.865,167.35 190.5,164.5C 190.479,162.398 190.813,160.232 191.5,158C 189.109,157.309 189.109,156.309 191.5,155C 190.328,154.581 189.328,153.915 188.5,153C 190.929,149.706 190.595,147.039 187.5,145C 191.382,143.129 192.049,140.629 189.5,137.5C 189.608,136.558 189.941,135.725 190.5,135C 188.915,134.915 187.582,134.749 186.5,134.5C 186.808,133.692 187.308,133.025 188,132.5C 188.893,133.711 189.726,133.711 190.5,132.5C 189.624,131.749 188.624,131.249 187.5,131C 189.259,130.02 190.926,129.353 192.5,129C 190.579,128.64 188.912,127.806 187.5,126.5C 188.356,123.521 187.023,122.188 183.5,122.5C 183.215,120.712 183.548,119.045 184.5,117.5C 185.768,118.428 187.101,118.595 188.5,118C 187.663,116.989 187.33,115.822 187.5,114.5C 185.857,114.48 184.524,115.147 183.5,116.5C 182.205,115.902 180.872,115.402 179.5,115C 180.211,113.745 181.044,112.579 182,111.5C 181.923,112.738 182.089,113.738 182.5,114.5C 183.192,113.975 183.692,113.308 184,112.5C 184.333,112.833 184.667,113.167 185,113.5C 185.311,112.258 184.811,111.258 183.5,110.5C 185.205,108.697 187.038,108.031 189,108.5C 189.667,105.833 190.333,105.833 191,108.5C 194.714,106.785 197.881,104.452 200.5,101.5C 204.395,99.8795 208.062,97.7129 211.5,95C 218.086,89.4468 220.586,82.9468 219,75.5C 218.612,74.572 217.945,73.9054 217,73.5C 215.588,74.6856 214.421,76.019 213.5,77.5C 213.741,74.2065 212.908,71.2065 211,68.5C 205.422,64.8984 199.255,63.5651 192.5,64.5C 192.918,63.7784 193.584,63.2784 194.5,63C 198.167,62.3333 201.833,62.3333 205.5,63C 209.925,64.9664 214.591,66.2997 219.5,67C 216.999,68.4177 217.332,69.4177 220.5,70C 219.167,70.6667 219.167,71.3333 220.5,72C 222.235,72.6514 223.902,72.4847 225.5,71.5C 226.167,72.1667 226.833,72.8333 227.5,73.5C 228.425,72.3595 229.259,72.3595 230,73.5C 233.144,71.3433 235.977,68.8433 238.5,66C 248.684,63.5029 256.518,66.6696 262,75.5C 265.37,83.8109 268.203,92.3109 270.5,101C 270.167,101.833 269.833,102.667 269.5,103.5C 268.719,102.271 268.219,100.938 268,99.5C 267.329,100.252 266.496,100.586 265.5,100.5 Z"/></g>
<g><path style="opacity:1" fill="#c35707" d="M 221.5,117.5 C 228.617,117.308 234.45,119.974 239,125.5C 249.947,144.254 250.281,163.254 240,182.5C 227.415,195.434 216.415,194.101 207,178.5C 199.133,161.126 199.799,144.126 209,127.5C 212.512,123.134 216.679,119.801 221.5,117.5 Z"/></g>
<g><path style="opacity:1" fill="#0c0d10" d="M 200.5,101.5 C 197.881,104.452 194.714,106.785 191,108.5C 190.333,105.833 189.667,105.833 189,108.5C 187.038,108.031 185.205,108.697 183.5,110.5C 184.811,111.258 185.311,112.258 185,113.5C 184.667,113.167 184.333,112.833 184,112.5C 183.692,113.308 183.192,113.975 182.5,114.5C 182.089,113.738 181.923,112.738 182,111.5C 181.044,112.579 180.211,113.745 179.5,115C 180.872,115.402 182.205,115.902 183.5,116.5C 184.524,115.147 185.857,114.48 187.5,114.5C 187.33,115.822 187.663,116.989 188.5,118C 187.101,118.595 185.768,118.428 184.5,117.5C 183.548,119.045 183.215,120.712 183.5,122.5C 187.023,122.188 188.356,123.521 187.5,126.5C 188.912,127.806 190.579,128.64 192.5,129C 190.926,129.353 189.259,130.02 187.5,131C 188.624,131.249 189.624,131.749 190.5,132.5C 189.726,133.711 188.893,133.711 188,132.5C 187.308,133.025 186.808,133.692 186.5,134.5C 187.582,134.749 188.915,134.915 190.5,135C 189.941,135.725 189.608,136.558 189.5,137.5C 192.049,140.629 191.382,143.129 187.5,145C 190.595,147.039 190.929,149.706 188.5,153C 189.328,153.915 190.328,154.581 191.5,155C 189.109,156.309 189.109,157.309 191.5,158C 190.813,160.232 190.479,162.398 190.5,164.5C 192.865,167.35 195.865,169.184 199.5,170C 199.167,170.333 198.833,170.667 198.5,171C 199.826,173.158 201.493,174.992 203.5,176.5C 204.002,181.003 204.335,185.503 204.5,190C 203.5,190.5 202.5,191 201.5,191.5C 199.675,190.429 198.508,191.096 198,193.5C 197.282,192.549 196.449,192.383 195.5,193C 192.362,194.305 190.029,196.471 188.5,199.5C 187.808,198.975 187.308,198.308 187,197.5C 186.311,198.357 185.478,199.023 184.5,199.5C 180.92,198.489 177.92,196.655 175.5,194C 172.666,193.955 170.166,193.121 168,191.5C 165.667,196.833 163.333,196.833 161,191.5C 160.825,187.789 160.325,184.122 159.5,180.5C 156.893,181.137 154.56,182.304 152.5,184C 148.833,187.833 145.167,191.667 141.5,195.5C 139.999,194.248 138.332,193.248 136.5,192.5C 135.449,193.885 134.116,194.885 132.5,195.5C 131.685,193.724 130.518,193.057 129,193.5C 127.66,194.868 126.326,196.201 125,197.5C 123.85,196.576 122.85,196.576 122,197.5C 122.619,195.398 123.453,193.231 124.5,191C 124.167,190.833 123.833,190.667 123.5,190.5C 116.63,196.879 110.297,203.046 104.5,209C 105.167,209.333 105.833,209.667 106.5,210C 104.779,210.739 103.113,211.573 101.5,212.5C 102.383,213.548 103.05,214.715 103.5,216C 101.929,216.388 100.929,217.888 100.5,220.5C 101.025,221.192 101.692,221.692 102.5,222C 101.167,223.333 99.8333,224.667 98.5,226C 98.8333,226.333 99.1667,226.667 99.5,227C 98.552,227.483 97.552,227.649 96.5,227.5C 95.6669,229.752 95.6669,231.919 96.5,234C 93.5303,242.864 90.3637,252.031 87,261.5C 85.9542,263.09 84.7875,264.59 83.5,266C 83.9574,266.414 84.2907,266.914 84.5,267.5C 82.0786,273.761 80.0786,280.094 78.5,286.5C 78.6082,287.442 78.9415,288.275 79.5,289C 77.1671,290.243 76.5004,291.909 77.5,294C 74.6214,296.945 73.9547,299.945 75.5,303C 73.5318,304.544 71.3651,305.711 69,306.5C 67.5391,305.117 66.7058,305.451 66.5,307.5C 65.5222,307.189 64.8555,306.522 64.5,305.5C 65.6953,304.033 65.6953,302.533 64.5,301C 65.9467,298.054 67.9467,295.554 70.5,293.5C 68.7823,290.527 69.4489,288.36 72.5,287C 73.0606,285.434 72.3939,284.101 70.5,283C 72.3348,282.072 72.6682,280.906 71.5,279.5C 73.7172,276.932 74.8839,273.932 75,270.5C 75.3333,270.833 75.6667,271.167 76,271.5C 76.1629,269.324 76.9963,267.491 78.5,266C 77.8229,263.463 78.8229,261.463 81.5,260C 80.6919,259.692 80.0253,259.192 79.5,258.5C 80.2135,256.189 81.2135,254.022 82.5,252C 82.6225,250.211 82.6225,248.378 82.5,246.5C 83.8333,244.5 85.1667,242.5 86.5,240.5C 85.9747,239.808 85.3081,239.308 84.5,239C 87.1667,238.333 87.1667,237.667 84.5,237C 85.3567,236.311 86.0233,235.478 86.5,234.5C 85.7503,231.955 86.0836,229.455 87.5,227C 86.4238,225.274 86.2571,223.441 87,221.5C 87.0891,224.849 88.2557,225.349 90.5,223C 89.1667,222.333 89.1667,221.667 90.5,221C 89.2893,220.213 88.2893,219.546 87.5,219C 88.205,216.293 89.705,214.126 92,212.5C 93.12,205.612 94.2867,198.779 95.5,192C 94.8053,186.95 96.1386,182.283 99.5,178C 97.1845,175.524 97.5178,173.191 100.5,171C 99.8333,170.667 99.1667,170.333 98.5,170C 99.9932,160.947 102.327,151.78 105.5,142.5C 105,141.5 104.5,140.5 104,139.5C 103.667,141.5 103.333,143.5 103,145.5C 102.801,143.598 101.967,142.098 100.5,141C 103.003,139.216 103.003,137.549 100.5,136C 103.167,135 103.167,134 100.5,133C 101.949,131.883 103.616,131.216 105.5,131C 107.855,125.428 107.355,125.262 104,130.5C 103.383,129.551 103.549,128.718 104.5,128C 101.833,127 101.833,126 104.5,125C 103.284,123.406 101.951,121.906 100.5,120.5C 102.432,118.611 104.265,116.611 106,114.5C 106.186,112.1 106.686,109.766 107.5,107.5C 109.833,106.167 112.167,104.833 114.5,103.5C 115.386,104.325 115.719,105.325 115.5,106.5C 117.103,106.688 118.437,106.188 119.5,105C 114.672,103.248 114.505,101.414 119,99.5C 119.368,100.91 120.201,101.91 121.5,102.5C 123.315,102.354 125.315,102.188 127.5,102C 126.549,102.718 126.383,103.551 127,104.5C 127.667,103.167 128.333,103.167 129,104.5C 129.787,103.289 130.454,102.289 131,101.5C 131.5,101.667 132,101.833 132.5,102C 131.745,104.133 130.412,105.8 128.5,107C 134.7,105.951 140.867,105.451 147,105.5C 147.75,106.126 148.584,106.626 149.5,107C 148.167,107.667 148.167,108.333 149.5,109C 146.968,109.612 146.135,111.112 147,113.5C 148.333,112.167 149.667,112.167 151,113.5C 151.617,112.551 151.451,111.718 150.5,111C 152.569,110.676 152.902,109.842 151.5,108.5C 155.572,104.736 160.239,103.57 165.5,105C 168.613,105.943 170.613,107.443 171.5,109.5C 173.098,107.027 174.598,107.027 176,109.5C 177.333,108.167 178.667,108.167 180,109.5C 186.788,106.718 193.622,104.051 200.5,101.5 Z"/></g>
<g><path style="opacity:1" fill="#111216" d="M 159.5,186.5 C 157.767,187.008 157.434,187.841 158.5,189C 156.364,191.568 156.364,193.902 158.5,196C 157.167,197 157.167,198 158.5,199C 157.5,200 156.5,201 155.5,202C 156.833,202.667 156.833,203.333 155.5,204C 155.802,205.655 157.136,206.988 159.5,208C 158.075,209.714 158.408,211.047 160.5,212C 159.5,213 158.5,214 157.5,215C 159.509,216.598 159.509,218.598 157.5,221C 159.918,222.751 161.251,224.751 161.5,227C 160.449,228.385 159.116,229.385 157.5,230C 157.833,230.333 158.167,230.667 158.5,231C 155.574,233.028 154.408,235.528 155,238.5C 153.795,239.071 152.628,239.738 151.5,240.5C 150.359,241.425 150.359,242.259 151.5,243C 148.007,244.088 147.841,245.255 151,246.5C 152.84,245.167 153.34,245.334 152.5,247C 151.216,247.684 150.049,247.517 149,246.5C 147.777,248.985 146.277,249.152 144.5,247C 145.956,246.577 146.456,245.744 146,244.5C 144.732,244.616 143.398,244.949 142,245.5C 140.582,243.637 138.749,243.137 136.5,244C 140.054,245.269 143.054,247.269 145.5,250C 144.874,250.75 144.374,251.584 144,252.5C 140.905,252.16 138.072,253.826 135.5,257.5C 136.833,258.167 138.167,258.833 139.5,259.5C 138.738,259.911 137.738,260.077 136.5,260C 135.386,261.57 134.053,262.903 132.5,264C 134.961,265.982 135.461,268.149 134,270.5C 133.586,270.043 133.086,269.709 132.5,269.5C 130.807,271.537 128.807,273.037 126.5,274C 126.833,274.333 127.167,274.667 127.5,275C 125.578,276.46 124.911,278.127 125.5,280C 124.449,281.385 123.116,282.385 121.5,283C 122.552,284.716 121.886,285.716 119.5,286C 119.957,286.414 120.291,286.914 120.5,287.5C 117.674,292.325 115.007,297.158 112.5,302C 113.167,302.333 113.833,302.667 114.5,303C 113.485,305.329 111.985,307.829 110,310.5C 109.316,311.784 109.483,312.951 110.5,314C 108.505,316.156 107.172,318.656 106.5,321.5C 102.317,322.154 99.484,320.488 98,316.5C 97.3937,313.57 96.5604,310.737 95.5,308C 97.5598,305.966 97.2265,303.966 94.5,302C 95.5,301.667 96.5,301.333 97.5,301C 96.1667,300 96.1667,299 97.5,298C 95.203,296.84 95.5363,295.84 98.5,295C 98.1667,294.667 97.8333,294.333 97.5,294C 99.0169,291.796 100.35,289.462 101.5,287C 101.167,286.667 100.833,286.333 100.5,286C 103.266,285.309 103.933,283.809 102.5,281.5C 103.462,278.115 104.796,274.949 106.5,272C 105.833,271.667 105.167,271.333 104.5,271C 106.884,269.591 108.217,267.924 108.5,266C 108.579,264.093 108.246,262.093 107.5,260C 110.544,259.641 110.878,258.974 108.5,258C 109.198,257.029 109.198,255.863 108.5,254.5C 109.01,252.912 110.01,251.745 111.5,251C 110.833,250.667 110.167,250.333 109.5,250C 109.057,248.482 109.724,247.315 111.5,246.5C 110.5,245.167 109.5,243.833 108.5,242.5C 107.28,243.711 106.113,243.711 105,242.5C 104.544,243.744 105.044,244.577 106.5,245C 103.987,246.039 101.653,247.372 99.5,249C 100.167,249.333 100.833,249.667 101.5,250C 97.731,256.045 94.3977,262.212 91.5,268.5C 92.1654,270.101 92.4988,271.601 92.5,273C 91.1667,273.667 90.1667,274.667 89.5,276C 90.7468,277.458 90.7468,278.958 89.5,280.5C 89.9767,281.478 90.6433,282.311 91.5,283C 90.1667,283.333 88.8333,283.667 87.5,284C 87.5,286 87.5,288 87.5,290C 88.938,290.219 90.2713,290.719 91.5,291.5C 90.2889,292.72 90.2889,293.887 91.5,295C 90.1667,295.333 88.8333,295.667 87.5,296C 88.9557,297.745 90.289,299.578 91.5,301.5C 89.7988,301.19 88.1322,301.69 86.5,303C 87.1667,303.333 87.8333,303.667 88.5,304C 83.1255,309.617 77.1255,311.784 70.5,310.5C 74.7658,309.421 78.0992,306.921 80.5,303C 78.1088,302.309 78.1088,301.309 80.5,300C 79.572,299.612 78.9054,298.945 78.5,298C 79.3084,295.239 80.3084,292.572 81.5,290C 81.1667,289.667 80.8333,289.333 80.5,289C 81.9799,286.441 83.3133,283.774 84.5,281C 84.1667,280 83.8333,279 83.5,278C 84.8333,277.333 85.8333,276.333 86.5,275C 87.5724,272.407 87.5724,269.574 86.5,266.5C 87.5,266.5 88.5,266.5 89.5,266.5C 89.4399,261.289 91.1065,256.789 94.5,253C 94.5,251.333 94.5,249.667 94.5,248C 96.9549,244.888 98.4549,241.388 99,237.5C 100.666,238.34 100.833,237.84 99.5,236C 101.167,234.667 102.833,233.333 104.5,232C 103.692,231.692 103.025,231.192 102.5,230.5C 102.888,228.359 102.888,226.359 102.5,224.5C 104.311,221.522 106.644,219.022 109.5,217C 109.167,216.667 108.833,216.333 108.5,216C 111.692,213.883 115.026,212.049 118.5,210.5C 121.107,211.137 123.44,212.304 125.5,214C 124.5,214.333 123.5,214.667 122.5,215C 125.631,217.233 128.964,218.233 132.5,218C 130.099,218.805 130.266,219.638 133,220.5C 135.189,216.955 137.522,216.955 140,220.5C 140.75,219.874 141.584,219.374 142.5,219C 138.275,216.454 138.608,215.12 143.5,215C 142.346,214.086 142.513,213.253 144,212.5C 144.889,213.888 145.389,213.722 145.5,212C 143.012,209.732 143.679,208.399 147.5,208C 146.833,207.667 146.167,207.333 145.5,207C 146.357,206.311 147.023,205.478 147.5,204.5C 146.45,202.898 147.117,202.065 149.5,202C 149.167,201.667 148.833,201.333 148.5,201C 149.833,199 151.167,197 152.5,195C 151.833,194.667 151.167,194.333 150.5,194C 151.766,193.691 152.933,193.191 154,192.5C 154.975,190.63 155.475,188.63 155.5,186.5C 156.853,185.315 158.02,183.981 159,182.5C 159.49,183.793 159.657,185.127 159.5,186.5 Z"/></g>
<g><path style="opacity:1" fill="#14161a" d="M 330.5,215.5 C 330.167,216.5 329.5,217.167 328.5,217.5C 327.272,215.99 327.272,214.49 328.5,213C 327.5,211.333 326.5,209.667 325.5,208C 320.04,208.566 314.54,209.399 309,210.5C 302.471,209.78 296.638,207.446 291.5,203.5C 286.009,198.177 280.342,193.011 274.5,188C 271.805,187.746 269.305,187.579 267,187.5C 265.915,188.293 264.748,188.96 263.5,189.5C 260.756,184.543 257.59,184.209 254,188.5C 252.692,190.641 251.192,192.641 249.5,194.5C 250.629,196.529 250.129,196.863 248,195.5C 247.085,197.98 245.585,198.647 243.5,197.5C 240.727,198.468 238.227,199.801 236,201.5C 234.667,200.833 233.333,200.167 232,199.5C 230.846,200.743 229.512,201.743 228,202.5C 225.268,202.816 222.768,202.483 220.5,201.5C 219.808,202.025 219.308,202.692 219,203.5C 216.459,201.474 213.625,199.807 210.5,198.5C 209.76,201.866 209.093,205.2 208.5,208.5C 207.695,210.915 206.695,213.249 205.5,215.5C 204.71,214.391 204.21,213.058 204,211.5C 202.559,210.74 201.059,210.074 199.5,209.5C 194.919,209.62 190.252,209.787 185.5,210C 181.294,211.462 177.127,211.962 173,211.5C 170.727,213.892 168.56,213.892 166.5,211.5C 165.5,212 164.5,212.5 163.5,213C 166.763,213.869 167.096,215.203 164.5,217C 166.957,218.512 166.957,219.846 164.5,221C 165.162,222.332 166.328,223.498 168,224.5C 167.621,226.075 167.788,227.575 168.5,229C 167.833,229.667 167.167,230.333 166.5,231C 167.641,231.741 167.641,232.575 166.5,233.5C 164.35,235.149 162.35,236.982 160.5,239C 162.095,238.383 163.428,238.716 164.5,240C 164.167,240.333 163.833,240.667 163.5,241C 165.075,240.621 166.575,240.788 168,241.5C 166.595,243.188 165.762,245.021 165.5,247C 166.376,248.585 167.709,249.585 169.5,250C 167.61,251.873 165.61,252.706 163.5,252.5C 167.611,255.255 167.444,256.255 163,255.5C 162.333,256.833 162.333,258.167 163,259.5C 163.725,257.842 164.892,257.342 166.5,258C 164.109,258.691 164.109,259.691 166.5,261C 164.744,261.202 163.078,261.702 161.5,262.5C 162.376,263.251 163.376,263.751 164.5,264C 162.608,264.973 160.608,265.64 158.5,266C 160.795,266.984 160.461,267.817 157.5,268.5C 156.914,268.291 156.414,267.957 156,267.5C 155.5,269.333 154.333,270.5 152.5,271C 154.846,270.208 157.179,270.375 159.5,271.5C 159.5,272.5 159.5,273.5 159.5,274.5C 157.027,273.691 154.694,273.358 152.5,273.5C 150.457,275.208 148.79,277.208 147.5,279.5C 143.6,276.553 142.1,277.553 143,282.5C 143.654,281.304 144.154,281.304 144.5,282.5C 143.349,283.731 142.183,283.731 141,282.5C 140.333,283.833 139.333,284.833 138,285.5C 138.661,287.035 138.994,288.702 139,290.5C 138.275,288.842 137.108,288.342 135.5,289C 136.833,289.667 136.833,290.333 135.5,291C 136.167,291.333 136.833,291.667 137.5,292C 135.212,292.822 132.878,293.489 130.5,294C 132.167,294.333 133.833,294.667 135.5,295C 132.519,295.401 130.353,296.901 129,299.5C 127.989,299.108 127.489,298.441 127.5,297.5C 126.41,298.727 125.076,299.56 123.5,300C 123.833,300.333 124.167,300.667 124.5,301C 121.833,302 121.833,303 124.5,304C 123.315,305.353 121.981,306.52 120.5,307.5C 119.359,308.425 119.359,309.259 120.5,310C 119.241,310.923 117.908,311.757 116.5,312.5C 117.167,313.167 117.833,313.833 118.5,314.5C 117.033,314.723 115.533,315.056 114,315.5C 113.383,316.449 113.549,317.282 114.5,318C 111.833,319 111.833,320 114.5,321C 113.167,321.333 111.833,321.667 110.5,322C 110.833,322.333 111.167,322.667 111.5,323C 108.828,323.834 106.161,324.668 103.5,325.5C 99.7208,322.098 96.0541,318.598 92.5,315C 85.4504,314.798 78.4504,314.298 71.5,313.5C 70.537,313.97 70.537,314.637 71.5,315.5C 69.1667,315.167 67.8333,313.833 67.5,311.5C 68.209,310.596 69.209,310.263 70.5,310.5C 77.1255,311.784 83.1255,309.617 88.5,304C 87.8333,303.667 87.1667,303.333 86.5,303C 88.1322,301.69 89.7988,301.19 91.5,301.5C 90.289,299.578 88.9557,297.745 87.5,296C 88.8333,295.667 90.1667,295.333 91.5,295C 90.2889,293.887 90.2889,292.72 91.5,291.5C 90.2713,290.719 88.938,290.219 87.5,290C 87.5,288 87.5,286 87.5,284C 88.8333,283.667 90.1667,283.333 91.5,283C 90.6433,282.311 89.9767,281.478 89.5,280.5C 90.7468,278.958 90.7468,277.458 89.5,276C 90.1667,274.667 91.1667,273.667 92.5,273C 92.4988,271.601 92.1654,270.101 91.5,268.5C 94.3977,262.212 97.731,256.045 101.5,250C 100.833,249.667 100.167,249.333 99.5,249C 101.653,247.372 103.987,246.039 106.5,245C 105.044,244.577 104.544,243.744 105,242.5C 106.113,243.711 107.28,243.711 108.5,242.5C 109.5,243.833 110.5,245.167 111.5,246.5C 109.724,247.315 109.057,248.482 109.5,250C 110.167,250.333 110.833,250.667 111.5,251C 110.01,251.745 109.01,252.912 108.5,254.5C 109.198,255.863 109.198,257.029 108.5,258C 110.878,258.974 110.544,259.641 107.5,260C 108.246,262.093 108.579,264.093 108.5,266C 108.217,267.924 106.884,269.591 104.5,271C 105.167,271.333 105.833,271.667 106.5,272C 104.796,274.949 103.462,278.115 102.5,281.5C 103.933,283.809 103.266,285.309 100.5,286C 100.833,286.333 101.167,286.667 101.5,287C 100.35,289.462 99.0169,291.796 97.5,294C 97.8333,294.333 98.1667,294.667 98.5,295C 95.5363,295.84 95.203,296.84 97.5,298C 96.1667,299 96.1667,300 97.5,301C 96.5,301.333 95.5,301.667 94.5,302C 97.2265,303.966 97.5598,305.966 95.5,308C 96.5604,310.737 97.3937,313.57 98,316.5C 99.484,320.488 102.317,322.154 106.5,321.5C 107.172,318.656 108.505,316.156 110.5,314C 109.483,312.951 109.316,311.784 110,310.5C 111.985,307.829 113.485,305.329 114.5,303C 113.833,302.667 113.167,302.333 112.5,302C 115.007,297.158 117.674,292.325 120.5,287.5C 120.291,286.914 119.957,286.414 119.5,286C 121.886,285.716 122.552,284.716 121.5,283C 123.116,282.385 124.449,281.385 125.5,280C 124.911,278.127 125.578,276.46 127.5,275C 127.167,274.667 126.833,274.333 126.5,274C 128.807,273.037 130.807,271.537 132.5,269.5C 133.086,269.709 133.586,270.043 134,270.5C 135.461,268.149 134.961,265.982 132.5,264C 134.053,262.903 135.386,261.57 136.5,260C 137.738,260.077 138.738,259.911 139.5,259.5C 138.167,258.833 136.833,258.167 135.5,257.5C 138.072,253.826 140.905,252.16 144,252.5C 144.374,251.584 144.874,250.75 145.5,250C 143.054,247.269 140.054,245.269 136.5,244C 138.749,243.137 140.582,243.637 142,245.5C 143.398,244.949 144.732,244.616 146,244.5C 146.456,245.744 145.956,246.577 144.5,247C 146.277,249.152 147.777,248.985 149,246.5C 150.049,247.517 151.216,247.684 152.5,247C 153.34,245.334 152.84,245.167 151,246.5C 147.841,245.255 148.007,244.088 151.5,243C 150.359,242.259 150.359,241.425 151.5,240.5C 152.628,239.738 153.795,239.071 155,238.5C 154.408,235.528 155.574,233.028 158.5,231C 158.167,230.667 157.833,230.333 157.5,230C 159.116,229.385 160.449,228.385 161.5,227C 161.251,224.751 159.918,222.751 157.5,221C 159.509,218.598 159.509,216.598 157.5,215C 158.5,214 159.5,213 160.5,212C 158.408,211.047 158.075,209.714 159.5,208C 157.136,206.988 155.802,205.655 155.5,204C 156.833,203.333 156.833,202.667 155.5,202C 156.5,201 157.5,200 158.5,199C 157.167,198 157.167,197 158.5,196C 156.364,193.902 156.364,191.568 158.5,189C 157.434,187.841 157.767,187.008 159.5,186.5C 159.85,191.569 160.683,196.569 162,201.5C 163.036,204.702 165.203,206.702 168.5,207.5C 170.364,206.007 172.53,205.34 175,205.5C 178.935,206.298 182.768,206.632 186.5,206.5C 191.963,203.83 197.463,203.497 203,205.5C 204.69,204.851 206.523,204.851 208.5,205.5C 208.394,199.319 208.394,193.319 208.5,187.5C 209.982,189.483 211.649,191.316 213.5,193C 219.372,194.851 225.372,196.018 231.5,196.5C 238.881,197.081 245.047,194.748 250,189.5C 252.501,184.659 255.001,179.826 257.5,175C 256.396,173.869 256.729,173.035 258.5,172.5C 260.012,173.991 261.012,175.824 261.5,178C 261.167,178.333 260.833,178.667 260.5,179C 262.1,180.608 263.433,182.441 264.5,184.5C 265.446,184.987 266.446,185.32 267.5,185.5C 269.428,184.233 271.261,183.566 273,183.5C 281.051,189.967 288.884,196.633 296.5,203.5C 300.976,205.74 305.643,207.406 310.5,208.5C 315.845,207.305 321.178,206.472 326.5,206C 328.167,207.667 329.833,209.333 331.5,211C 329.964,212.468 329.63,213.968 330.5,215.5 Z"/></g>
<g><path style="opacity:0.999" fill="#141519" d="M 273.5,197.5 C 273.179,199.048 272.179,199.715 270.5,199.5C 269.486,205.185 266.486,209.518 261.5,212.5C 260.914,212.291 260.414,211.957 260,211.5C 259.64,213.608 258.973,215.608 258,217.5C 257.667,217.167 257.333,216.833 257,216.5C 256.289,218.367 256.789,219.867 258.5,221C 256.109,221.691 256.109,222.691 258.5,224C 255.089,225.664 253.422,228.498 253.5,232.5C 255.68,236.508 257.014,240.508 257.5,244.5C 256.167,245.833 256.167,247.167 257.5,248.5C 256.975,249.192 256.308,249.692 255.5,250C 256.384,256.045 257.051,262.212 257.5,268.5C 257.023,269.478 256.357,270.311 255.5,271C 255.614,274.714 255.614,278.381 255.5,282C 255.025,283.763 254.358,285.43 253.5,287C 253.616,288.268 253.949,289.602 254.5,291C 252.983,294.876 251.65,298.876 250.5,303C 250.665,304.117 250.998,305.284 251.5,306.5C 249.468,313.211 247.468,319.878 245.5,326.5C 244.855,328.826 243.522,330.493 241.5,331.5C 240.711,330.085 240.044,328.585 239.5,327C 242.057,317.916 244.557,308.416 247,298.5C 248.403,289.6 249.236,281.1 249.5,273C 248.833,271.333 248.167,269.667 247.5,268C 248.308,267.692 248.975,267.192 249.5,266.5C 247.979,260.566 245.979,260.233 243.5,265.5C 236.901,282.829 232.901,300.496 231.5,318.5C 231.621,319.894 231.954,321.228 232.5,322.5C 230.309,326.901 227.642,330.901 224.5,334.5C 222.525,336.137 220.525,337.804 218.5,339.5C 215.074,339.65 214.741,338.484 217.5,336C 216.826,334.249 216.493,332.583 216.5,331C 218.873,325.314 219.873,319.481 219.5,313.5C 220.122,310.63 220.789,307.796 221.5,305C 220.167,300.667 220.167,296.333 221.5,292C 223.335,291.072 223.668,289.906 222.5,288.5C 223.896,283.898 225.063,279.231 226,274.5C 228.861,274.908 229.028,274.075 226.5,272C 231.694,265.832 233.36,258.999 231.5,251.5C 232.5,251.5 233.5,251.5 234.5,251.5C 233.5,249.5 232.5,247.5 231.5,245.5C 232.171,240.835 232.171,236.668 231.5,233C 232.167,232.667 232.833,232.333 233.5,232C 232.62,230.644 232.286,229.144 232.5,227.5C 234.124,227.36 235.29,228.027 236,229.5C 236.746,226.211 235.58,223.711 232.5,222C 234.095,222.617 235.428,222.284 236.5,221C 235.549,220.282 235.383,219.449 236,218.5C 238.603,216.564 240.436,214.064 241.5,211C 243.087,210.138 244.754,209.471 246.5,209C 242.815,208.086 243.148,207.419 247.5,207C 247.167,206.667 246.833,206.333 246.5,206C 247.5,205.667 248.5,205.333 249.5,205C 249.167,204.667 248.833,204.333 248.5,204C 250.061,203.682 251.228,202.849 252,201.5C 254.37,202.128 256.703,202.461 259,202.5C 259.875,200.487 261.209,200.487 263,202.5C 265.814,199.419 269.314,197.753 273.5,197.5 Z"/></g>
<g><path style="opacity:1" fill="#1a1c21" d="M 328.5,217.5 C 325.78,219.527 322.78,221.193 319.5,222.5C 318.683,220.692 319.35,219.192 321.5,218C 320.774,216.603 319.607,215.769 318,215.5C 313.194,217.419 308.361,218.752 303.5,219.5C 302.448,219.649 301.448,219.483 300.5,219C 292.602,211.936 285.268,204.436 278.5,196.5C 278.265,195.903 277.765,195.57 277,195.5C 275.923,196.429 274.756,197.096 273.5,197.5C 269.314,197.753 265.814,199.419 263,202.5C 261.209,200.487 259.875,200.487 259,202.5C 256.703,202.461 254.37,202.128 252,201.5C 251.228,202.849 250.061,203.682 248.5,204C 248.833,204.333 249.167,204.667 249.5,205C 248.5,205.333 247.5,205.667 246.5,206C 246.833,206.333 247.167,206.667 247.5,207C 243.148,207.419 242.815,208.086 246.5,209C 244.754,209.471 243.087,210.138 241.5,211C 240.436,214.064 238.603,216.564 236,218.5C 235.383,219.449 235.549,220.282 236.5,221C 235.428,222.284 234.095,222.617 232.5,222C 235.58,223.711 236.746,226.211 236,229.5C 235.29,228.027 234.124,227.36 232.5,227.5C 232.286,229.144 232.62,230.644 233.5,232C 232.833,232.333 232.167,232.667 231.5,233C 232.171,236.668 232.171,240.835 231.5,245.5C 232.5,247.5 233.5,249.5 234.5,251.5C 233.5,251.5 232.5,251.5 231.5,251.5C 233.36,258.999 231.694,265.832 226.5,272C 229.028,274.075 228.861,274.908 226,274.5C 225.063,279.231 223.896,283.898 222.5,288.5C 223.668,289.906 223.335,291.072 221.5,292C 220.167,296.333 220.167,300.667 221.5,305C 220.789,307.796 220.122,310.63 219.5,313.5C 219.873,319.481 218.873,325.314 216.5,331C 216.493,332.583 216.826,334.249 217.5,336C 214.741,338.484 215.074,339.65 218.5,339.5C 217.5,341.167 216.167,342.5 214.5,343.5C 213.329,342.655 211.995,341.989 210.5,341.5C 212.248,338.824 211.581,336.991 208.5,336C 209.471,334.796 210.471,334.296 211.5,334.5C 210.305,333.033 210.305,331.533 211.5,330C 211.095,329.055 210.428,328.388 209.5,328C 210.167,327.667 210.833,327.333 211.5,327C 211.548,324.34 211.215,321.84 210.5,319.5C 210.977,318.522 211.643,317.689 212.5,317C 212.255,314.911 212.255,312.911 212.5,311C 209.961,308.688 210.295,306.688 213.5,305C 212.297,303.632 211.297,302.132 210.5,300.5C 211.529,300.704 212.529,300.204 213.5,299C 212.572,298.612 211.905,297.945 211.5,297C 212.822,293.684 212.822,290.35 211.5,287C 212.833,285.667 214.167,284.333 215.5,283C 215.511,280.661 215.511,278.328 215.5,276C 215.905,275.055 216.572,274.388 217.5,274C 214.584,271.929 214.918,270.595 218.5,270C 218.167,269.667 217.833,269.333 217.5,269C 218.167,267.333 218.833,265.667 219.5,264C 219.165,258.257 217.832,252.923 215.5,248C 216.624,247.751 217.624,247.251 218.5,246.5C 217.167,242.167 215.833,237.833 214.5,233.5C 217.076,232.117 216.742,231.283 213.5,231C 216.943,230.779 217.276,229.779 214.5,228C 216.525,226.806 216.859,225.306 215.5,223.5C 217.713,221.226 220.379,219.726 223.5,219C 221.101,218.289 218.768,218.456 216.5,219.5C 215.571,218.311 215.238,216.978 215.5,215.5C 210.206,215.318 210.206,214.818 215.5,214C 213.035,212.372 210.702,210.539 208.5,208.5C 209.093,205.2 209.76,201.866 210.5,198.5C 213.625,199.807 216.459,201.474 219,203.5C 219.308,202.692 219.808,202.025 220.5,201.5C 222.768,202.483 225.268,202.816 228,202.5C 229.512,201.743 230.846,200.743 232,199.5C 233.333,200.167 234.667,200.833 236,201.5C 238.227,199.801 240.727,198.468 243.5,197.5C 245.585,198.647 247.085,197.98 248,195.5C 250.129,196.863 250.629,196.529 249.5,194.5C 251.192,192.641 252.692,190.641 254,188.5C 257.59,184.209 260.756,184.543 263.5,189.5C 264.748,188.96 265.915,188.293 267,187.5C 269.305,187.579 271.805,187.746 274.5,188C 280.342,193.011 286.009,198.177 291.5,203.5C 296.638,207.446 302.471,209.78 309,210.5C 314.54,209.399 320.04,208.566 325.5,208C 326.5,209.667 327.5,211.333 328.5,213C 327.272,214.49 327.272,215.99 328.5,217.5 Z"/></g>
<g><path style="opacity:0.996" fill="#0d0e11" d="M 278.5,196.5 C 277.778,196.918 277.278,197.584 277,198.5C 273.255,239.747 264.255,279.747 250,318.5C 248.763,321.448 247.263,324.115 245.5,326.5C 247.468,319.878 249.468,313.211 251.5,306.5C 250.998,305.284 250.665,304.117 250.5,303C 251.65,298.876 252.983,294.876 254.5,291C 253.949,289.602 253.616,288.268 253.5,287C 254.358,285.43 255.025,283.763 255.5,282C 255.614,278.381 255.614,274.714 255.5,271C 256.357,270.311 257.023,269.478 257.5,268.5C 257.051,262.212 256.384,256.045 255.5,250C 256.308,249.692 256.975,249.192 257.5,248.5C 256.167,247.167 256.167,245.833 257.5,244.5C 257.014,240.508 255.68,236.508 253.5,232.5C 253.422,228.498 255.089,225.664 258.5,224C 256.109,222.691 256.109,221.691 258.5,221C 256.789,219.867 256.289,218.367 257,216.5C 257.333,216.833 257.667,217.167 258,217.5C 258.973,215.608 259.64,213.608 260,211.5C 260.414,211.957 260.914,212.291 261.5,212.5C 266.486,209.518 269.486,205.185 270.5,199.5C 272.179,199.715 273.179,199.048 273.5,197.5C 274.756,197.096 275.923,196.429 277,195.5C 277.765,195.57 278.265,195.903 278.5,196.5 Z"/></g>
<g><path style="opacity:1" fill="#24272c" d="M 204.5,217.5 C 207.408,218.159 207.742,218.993 205.5,220C 207.957,221.512 207.957,222.846 205.5,224C 205.833,224.333 206.167,224.667 206.5,225C 205.5,225.333 204.5,225.667 203.5,226C 204.641,226.741 204.641,227.575 203.5,228.5C 205.991,229.541 205.991,230.374 203.5,231C 204.424,231.85 204.424,232.85 203.5,234C 206.251,237.169 207.918,240.836 208.5,245C 208.167,245.333 207.833,245.667 207.5,246C 208.516,246.519 209.182,247.353 209.5,248.5C 208.927,250.354 208.593,252.187 208.5,254C 209.5,254.333 210.5,254.667 211.5,255C 210.376,255.839 209.709,257.006 209.5,258.5C 210.328,262.248 210.995,265.748 211.5,269C 209.5,269.333 207.5,269.667 205.5,270C 206.956,270.423 207.456,271.256 207,272.5C 204.361,270.424 201.527,269.591 198.5,270C 199.673,266.89 199.173,266.723 197,269.5C 196.667,269.167 196.333,268.833 196,268.5C 195.113,271.623 193.279,273.957 190.5,275.5C 183.962,290.639 175.462,305.972 165,321.5C 162.566,324.932 161.732,328.599 162.5,332.5C 162.023,333.478 161.357,334.311 160.5,335C 163.047,335.552 165.047,336.886 166.5,339C 170.753,339.2 174.92,339.7 179,340.5C 180.487,339.747 180.654,338.914 179.5,338C 180.872,337.598 182.205,337.098 183.5,336.5C 185.784,333.568 188.45,331.068 191.5,329C 189.009,328.374 189.009,327.541 191.5,326.5C 190.572,325.232 190.405,323.899 191,322.5C 193.108,320.618 194.441,318.285 195,315.5C 195.903,314.299 197.069,313.465 198.5,313C 197.549,312.282 197.383,311.449 198,310.5C 198.979,308.68 200.479,307.513 202.5,307C 202.623,304.544 202.623,302.044 202.5,299.5C 203.723,298.386 205.056,298.219 206.5,299C 205.833,299.333 205.167,299.667 204.5,300C 204.057,301.518 204.724,302.685 206.5,303.5C 205.738,303.911 204.738,304.077 203.5,304C 204.833,305 204.833,306 203.5,307C 207.169,308.408 207.169,310.075 203.5,312C 204.5,313 205.5,314 206.5,315C 205.364,316.53 204.364,317.863 203.5,319C 205.108,319.658 206.275,319.158 207,317.5C 206.111,320.376 206.944,322.876 209.5,325C 208.584,325.374 207.75,325.874 207,326.5C 206.28,324.745 205.113,323.911 203.5,324C 203.693,325.645 203.86,327.479 204,329.5C 207.34,331.608 207.173,333.108 203.5,334C 206.268,334.708 207.101,336.208 206,338.5C 207.016,339.634 207.683,339.301 208,337.5C 208.2,339.32 209.034,340.653 210.5,341.5C 211.995,341.989 213.329,342.655 214.5,343.5C 211.626,345.935 208.293,347.269 204.5,347.5C 200.261,347.224 195.928,347.057 191.5,347C 183.326,345.573 175.326,343.573 167.5,341C 164.066,338.993 160.4,337.493 156.5,336.5C 154.731,334.394 152.565,332.728 150,331.5C 146.636,333.771 143.136,335.938 139.5,338C 133.697,338.891 128.03,339.725 122.5,340.5C 117.221,338.862 112.555,336.195 108.5,332.5C 108.369,331.624 108.702,330.957 109.5,330.5C 116.784,332.799 124.284,334.132 132,334.5C 133.667,332.951 135.834,331.285 138.5,329.5C 139.833,328.167 139.833,326.833 138.5,325.5C 142.085,319.998 145.419,314.331 148.5,308.5C 147.109,308.891 146.109,308.058 145.5,306C 148.715,305.726 151.381,304.393 153.5,302C 152.655,300.442 153.321,299.442 155.5,299C 155.167,298.667 154.833,298.333 154.5,298C 157.75,293.078 160.583,287.911 163,282.5C 166.735,277.612 170.569,273.612 174.5,270.5C 175.165,268.899 175.499,267.399 175.5,266C 174.5,265.667 173.5,265.333 172.5,265C 174.026,263.113 176.026,262.113 178.5,262C 177.692,261.692 177.025,261.192 176.5,260.5C 178.472,258.585 179.472,256.251 179.5,253.5C 181.942,253.646 182.609,252.813 181.5,251C 182.328,250.085 183.328,249.419 184.5,249C 183.5,248.167 182.5,247.333 181.5,246.5C 182.025,245.808 182.692,245.308 183.5,245C 181.514,239.716 179.514,234.383 177.5,229C 177.833,228.667 178.167,228.333 178.5,228C 176.469,224.432 174.636,220.932 173,217.5C 173.903,216.299 175.069,215.465 176.5,215C 182.526,213.761 188.526,212.595 194.5,211.5C 201.364,210.319 203.864,212.986 202,219.5C 202.708,218.619 203.542,217.953 204.5,217.5 Z"/></g>
<g><path style="opacity:1" fill="#333841" d="M 319.5,222.5 C 313.498,224.423 308.165,223.423 303.5,219.5C 308.361,218.752 313.194,217.419 318,215.5C 319.607,215.769 320.774,216.603 321.5,218C 319.35,219.192 318.683,220.692 319.5,222.5 Z"/></g>
<g><path style="opacity:1" fill="#353a43" d="M 191.5,216.5 C 193.453,217.462 195.286,217.795 197,217.5C 198.271,221.166 197.104,223.666 193.5,225C 187.856,226.07 182.523,225.236 177.5,222.5C 176.614,221.675 176.281,220.675 176.5,219.5C 181.196,219.329 185.863,218.829 190.5,218C 191.056,217.617 191.389,217.117 191.5,216.5 Z"/></g>
<g><path style="opacity:1" fill="#191b20" d="M 205.5,215.5 C 205.167,216.167 204.833,216.833 204.5,217.5C 203.542,217.953 202.708,218.619 202,219.5C 203.864,212.986 201.364,210.319 194.5,211.5C 188.526,212.595 182.526,213.761 176.5,215C 175.069,215.465 173.903,216.299 173,217.5C 174.636,220.932 176.469,224.432 178.5,228C 178.167,228.333 177.833,228.667 177.5,229C 179.514,234.383 181.514,239.716 183.5,245C 182.692,245.308 182.025,245.808 181.5,246.5C 182.5,247.333 183.5,248.167 184.5,249C 183.328,249.419 182.328,250.085 181.5,251C 182.609,252.813 181.942,253.646 179.5,253.5C 179.472,256.251 178.472,258.585 176.5,260.5C 177.025,261.192 177.692,261.692 178.5,262C 176.026,262.113 174.026,263.113 172.5,265C 173.5,265.333 174.5,265.667 175.5,266C 175.499,267.399 175.165,268.899 174.5,270.5C 170.569,273.612 166.735,277.612 163,282.5C 160.583,287.911 157.75,293.078 154.5,298C 154.833,298.333 155.167,298.667 155.5,299C 153.321,299.442 152.655,300.442 153.5,302C 151.381,304.393 148.715,305.726 145.5,306C 146.109,308.058 147.109,308.891 148.5,308.5C 145.419,314.331 142.085,319.998 138.5,325.5C 139.833,326.833 139.833,328.167 138.5,329.5C 135.834,331.285 133.667,332.951 132,334.5C 124.284,334.132 116.784,332.799 109.5,330.5C 108.702,330.957 108.369,331.624 108.5,332.5C 104.002,328.17 99.3354,324.003 94.5,320C 86.6657,319.14 78.9991,317.64 71.5,315.5C 70.537,314.637 70.537,313.97 71.5,313.5C 78.4504,314.298 85.4504,314.798 92.5,315C 96.0541,318.598 99.7208,322.098 103.5,325.5C 106.161,324.668 108.828,323.834 111.5,323C 111.167,322.667 110.833,322.333 110.5,322C 111.833,321.667 113.167,321.333 114.5,321C 111.833,320 111.833,319 114.5,318C 113.549,317.282 113.383,316.449 114,315.5C 115.533,315.056 117.033,314.723 118.5,314.5C 117.833,313.833 117.167,313.167 116.5,312.5C 117.908,311.757 119.241,310.923 120.5,310C 119.359,309.259 119.359,308.425 120.5,307.5C 121.981,306.52 123.315,305.353 124.5,304C 121.833,303 121.833,302 124.5,301C 124.167,300.667 123.833,300.333 123.5,300C 125.076,299.56 126.41,298.727 127.5,297.5C 127.489,298.441 127.989,299.108 129,299.5C 130.353,296.901 132.519,295.401 135.5,295C 133.833,294.667 132.167,294.333 130.5,294C 132.878,293.489 135.212,292.822 137.5,292C 136.833,291.667 136.167,291.333 135.5,291C 136.833,290.333 136.833,289.667 135.5,289C 137.108,288.342 138.275,288.842 139,290.5C 138.994,288.702 138.661,287.035 138,285.5C 139.333,284.833 140.333,283.833 141,282.5C 142.183,283.731 143.349,283.731 144.5,282.5C 144.154,281.304 143.654,281.304 143,282.5C 142.1,277.553 143.6,276.553 147.5,279.5C 148.79,277.208 150.457,275.208 152.5,273.5C 154.694,273.358 157.027,273.691 159.5,274.5C 159.5,273.5 159.5,272.5 159.5,271.5C 157.179,270.375 154.846,270.208 152.5,271C 154.333,270.5 155.5,269.333 156,267.5C 156.414,267.957 156.914,268.291 157.5,268.5C 160.461,267.817 160.795,266.984 158.5,266C 160.608,265.64 162.608,264.973 164.5,264C 163.376,263.751 162.376,263.251 161.5,262.5C 163.078,261.702 164.744,261.202 166.5,261C 164.109,259.691 164.109,258.691 166.5,258C 164.892,257.342 163.725,257.842 163,259.5C 162.333,258.167 162.333,256.833 163,255.5C 167.444,256.255 167.611,255.255 163.5,252.5C 165.61,252.706 167.61,251.873 169.5,250C 167.709,249.585 166.376,248.585 165.5,247C 165.762,245.021 166.595,243.188 168,241.5C 166.575,240.788 165.075,240.621 163.5,241C 163.833,240.667 164.167,240.333 164.5,240C 163.428,238.716 162.095,238.383 160.5,239C 162.35,236.982 164.35,235.149 166.5,233.5C 167.641,232.575 167.641,231.741 166.5,231C 167.167,230.333 167.833,229.667 168.5,229C 167.788,227.575 167.621,226.075 168,224.5C 166.328,223.498 165.162,222.332 164.5,221C 166.957,219.846 166.957,218.512 164.5,217C 167.096,215.203 166.763,213.869 163.5,213C 164.5,212.5 165.5,212 166.5,211.5C 168.56,213.892 170.727,213.892 173,211.5C 177.127,211.962 181.294,211.462 185.5,210C 190.252,209.787 194.919,209.62 199.5,209.5C 201.059,210.074 202.559,210.74 204,211.5C 204.21,213.058 204.71,214.391 205.5,215.5 Z"/></g>
<g><path style="opacity:1" fill="#1e2025" d="M 208.5,208.5 C 210.702,210.539 213.035,212.372 215.5,214C 210.206,214.818 210.206,215.318 215.5,215.5C 215.238,216.978 215.571,218.311 216.5,219.5C 218.768,218.456 221.101,218.289 223.5,219C 220.379,219.726 217.713,221.226 215.5,223.5C 216.859,225.306 216.525,226.806 214.5,228C 217.276,229.779 216.943,230.779 213.5,231C 216.742,231.283 217.076,232.117 214.5,233.5C 215.833,237.833 217.167,242.167 218.5,246.5C 217.624,247.251 216.624,247.751 215.5,248C 217.832,252.923 219.165,258.257 219.5,264C 218.833,265.667 218.167,267.333 217.5,269C 217.833,269.333 218.167,269.667 218.5,270C 214.918,270.595 214.584,271.929 217.5,274C 216.572,274.388 215.905,275.055 215.5,276C 215.511,278.328 215.511,280.661 215.5,283C 214.167,284.333 212.833,285.667 211.5,287C 212.822,290.35 212.822,293.684 211.5,297C 211.905,297.945 212.572,298.612 213.5,299C 212.529,300.204 211.529,300.704 210.5,300.5C 211.297,302.132 212.297,303.632 213.5,305C 210.295,306.688 209.961,308.688 212.5,311C 212.255,312.911 212.255,314.911 212.5,317C 211.643,317.689 210.977,318.522 210.5,319.5C 211.215,321.84 211.548,324.34 211.5,327C 210.833,327.333 210.167,327.667 209.5,328C 210.428,328.388 211.095,329.055 211.5,330C 210.305,331.533 210.305,333.033 211.5,334.5C 210.471,334.296 209.471,334.796 208.5,336C 211.581,336.991 212.248,338.824 210.5,341.5C 209.034,340.653 208.2,339.32 208,337.5C 207.683,339.301 207.016,339.634 206,338.5C 207.101,336.208 206.268,334.708 203.5,334C 207.173,333.108 207.34,331.608 204,329.5C 203.86,327.479 203.693,325.645 203.5,324C 205.113,323.911 206.28,324.745 207,326.5C 207.75,325.874 208.584,325.374 209.5,325C 206.944,322.876 206.111,320.376 207,317.5C 206.275,319.158 205.108,319.658 203.5,319C 204.364,317.863 205.364,316.53 206.5,315C 205.5,314 204.5,313 203.5,312C 207.169,310.075 207.169,308.408 203.5,307C 204.833,306 204.833,305 203.5,304C 204.738,304.077 205.738,303.911 206.5,303.5C 204.724,302.685 204.057,301.518 204.5,300C 205.167,299.667 205.833,299.333 206.5,299C 205.056,298.219 203.723,298.386 202.5,299.5C 202.623,302.044 202.623,304.544 202.5,307C 200.479,307.513 198.979,308.68 198,310.5C 197.383,311.449 197.549,312.282 198.5,313C 197.069,313.465 195.903,314.299 195,315.5C 194.441,318.285 193.108,320.618 191,322.5C 190.405,323.899 190.572,325.232 191.5,326.5C 189.009,327.541 189.009,328.374 191.5,329C 188.45,331.068 185.784,333.568 183.5,336.5C 182.205,337.098 180.872,337.598 179.5,338C 180.654,338.914 180.487,339.747 179,340.5C 174.92,339.7 170.753,339.2 166.5,339C 165.047,336.886 163.047,335.552 160.5,335C 161.357,334.311 162.023,333.478 162.5,332.5C 161.732,328.599 162.566,324.932 165,321.5C 175.462,305.972 183.962,290.639 190.5,275.5C 193.279,273.957 195.113,271.623 196,268.5C 196.333,268.833 196.667,269.167 197,269.5C 199.173,266.723 199.673,266.89 198.5,270C 201.527,269.591 204.361,270.424 207,272.5C 207.456,271.256 206.956,270.423 205.5,270C 207.5,269.667 209.5,269.333 211.5,269C 210.995,265.748 210.328,262.248 209.5,258.5C 209.709,257.006 210.376,255.839 211.5,255C 210.5,254.667 209.5,254.333 208.5,254C 208.593,252.187 208.927,250.354 209.5,248.5C 209.182,247.353 208.516,246.519 207.5,246C 207.833,245.667 208.167,245.333 208.5,245C 207.918,240.836 206.251,237.169 203.5,234C 204.424,232.85 204.424,231.85 203.5,231C 205.991,230.374 205.991,229.541 203.5,228.5C 204.641,227.575 204.641,226.741 203.5,226C 204.5,225.667 205.5,225.333 206.5,225C 206.167,224.667 205.833,224.333 205.5,224C 207.957,222.846 207.957,221.512 205.5,220C 207.742,218.993 207.408,218.159 204.5,217.5C 204.833,216.833 205.167,216.167 205.5,215.5C 206.695,213.249 207.695,210.915 208.5,208.5 Z"/></g>
<g><path style="opacity:1" fill="#1d1f25" d="M 241.5,331.5 C 241.082,332.222 240.416,332.722 239.5,333C 234.481,333.411 229.481,333.911 224.5,334.5C 227.642,330.901 230.309,326.901 232.5,322.5C 231.954,321.228 231.621,319.894 231.5,318.5C 232.901,300.496 236.901,282.829 243.5,265.5C 245.979,260.233 247.979,260.566 249.5,266.5C 248.975,267.192 248.308,267.692 247.5,268C 248.167,269.667 248.833,271.333 249.5,273C 249.236,281.1 248.403,289.6 247,298.5C 244.557,308.416 242.057,317.916 239.5,327C 240.044,328.585 240.711,330.085 241.5,331.5 Z"/></g>
<g><path style="opacity:0.996" fill="#353a43" d="M 204.5,347.5 C 201.245,349.566 197.579,350.566 193.5,350.5C 180.82,347.108 168.154,343.608 155.5,340C 147.765,339.45 140.098,339.95 132.5,341.5C 129.133,341.355 125.799,341.022 122.5,340.5C 128.03,339.725 133.697,338.891 139.5,338C 143.136,335.938 146.636,333.771 150,331.5C 152.565,332.728 154.731,334.394 156.5,336.5C 160.4,337.493 164.066,338.993 167.5,341C 175.326,343.573 183.326,345.573 191.5,347C 195.928,347.057 200.261,347.224 204.5,347.5 Z"/></g>
</svg>
